Title:
38 Witnesses Aka 38 Témoins

Contry:
France/2012

Language:
France

No Subtitle

Director:
Lucas Belvaux

Writers:
Lucas Belvaux (scenario), Didier Decoin (novel)

Stars:
Yvan Attal, Sophie Quinton, Nicole Garcia 

Synopsis:
A young woman is stabbed, sexually assaulted and murdered in public as her neighbors ignore her cries for help. 

Imdb: 
http://www.imdb.com/title/tt1817286

Trailer: 
http://www.bandes-annonces.fr/film/bande-annonce-38temoins.html



Media Info:

General
Complete name                            : 38.Witnesses.[38.Temoins].2012.BRRip.AC3.HORiZON-ArtSubs
Format                                   : AVI
Format/Info                              : Audio Video Interleave
File size                                : 1.37 GiB
Duration                                 : 1h 43mn
Overall bit rate                         : 1 893 Kbps

Video
ID                                       : 0
Format                                   : MPEG-4 Visual
Format profile                           : Advanced Simple@L5
Format settings, BVOP                    : 1
Format settings, QPel                    : No
Format settings, GMC                     : No warppoints
Format settings, Matrix                  : Default (H.263)
Muxing mode                              : Packed bitstream
Codec ID                                 : XVID
Codec ID/Hint                            : XviD
Duration                                 : 1h 43mn
Bit rate                                 : 1 436 Kbps
Width                                    : 640 pixels
Height                                   : 272 pixels
Display aspect ratio                     : 2.35:1
Frame rate                               : 23.976 fps
Color space                              : YUV
Chroma subsampling                       : 4:2:0
Bit depth                                : 8 bits
Scan type                                : Progressive
Compression mode                         : Lossy
Bits/(Pixel*Frame)                       : 0.344
Stream size                              : 1.04 GiB (76%)
Writing library                          : XviD 1.2.1 (UTC 2008-12-04)

Audio
ID                                       : 1
Format                                   : AC-3
Format/Info                              : Audio Coding 3
Mode extension                           : CM (complete main)
Format settings, Endianness              : Big
Codec ID                                 : 2000
Duration                                 : 1h 43mn
Bit rate mode                            : Constant
Bit rate                                 : 448 Kbps
Channel(s)                               : 6 channels
Channel positions                        : Front: L C R, Side: L R, LFE
Sampling rate                            : 48.0 KHz
Bit depth                                : 16 bits
Compression mode                         : Lossy
Stream size                              : 331 MiB (24%)
Alignment                                : Split accross interleaves
Interleave, duration                     : 42 ms (1.00 video frame)
Interleave, preload duration             : 500 ms

